<mxfile host="app.diagrams.net" agent="Mozilla/5.0 (Macintosh; Intel Mac OS X 10_15_7) AppleWebKit/537.36 (KHTML, like Gecko) Chrome/130.0.0.0 Safari/537.36 Edg/130.0.0.0" version="24.8.4">
  <diagram name="Page-1" id="y5g9oLqhGPSVJRIakE2-">
    <mxGraphModel dx="748" dy="618" grid="0" gridSize="10" guides="1" tooltips="1" connect="1" arrows="1" fold="1" page="1" pageScale="1" pageWidth="2050" pageHeight="2000" math="0" shadow="0">
      <root>
        <mxCell id="0" />
        <mxCell id="1" parent="0" />
        <mxCell id="pQ48hnmP3BsQIGEezLn9-2" value="Travel Agent" style="rounded=1;whiteSpace=wrap;html=1;strokeColor=#6c8ebf;fillColor=#dae8fc;" parent="1" vertex="1">
          <mxGeometry x="608" y="196" width="120" height="61" as="geometry" />
        </mxCell>
        <mxCell id="pQ48hnmP3BsQIGEezLn9-3" value="User" style="rounded=1;whiteSpace=wrap;html=1;strokeColor=#6c8ebf;fillColor=#dae8fc;" parent="1" vertex="1">
          <mxGeometry x="826" y="276" width="120" height="60" as="geometry" />
        </mxCell>
        <mxCell id="pQ48hnmP3BsQIGEezLn9-5" value="&lt;div&gt;&lt;span data-darkreader-inline-bgcolor=&quot;&quot; style=&quot;background-color: initial; --darkreader-inline-bgcolor: initial;&quot;&gt;Flights Refunder Agent&lt;/span&gt;&lt;/div&gt;" style="rounded=1;whiteSpace=wrap;html=1;strokeColor=#6c8ebf;fillColor=#dae8fc;" parent="1" vertex="1">
          <mxGeometry x="608" y="330" width="120" height="60" as="geometry" />
        </mxCell>
        <mxCell id="pQ48hnmP3BsQIGEezLn9-6" value="" style="endArrow=classic;startArrow=classic;html=1;rounded=0;entryX=0.5;entryY=1;entryDx=0;entryDy=0;" parent="1" source="pQ48hnmP3BsQIGEezLn9-5" target="pQ48hnmP3BsQIGEezLn9-2" edge="1">
          <mxGeometry width="50" height="50" relative="1" as="geometry">
            <mxPoint x="706" y="376" as="sourcePoint" />
            <mxPoint x="756" y="326" as="targetPoint" />
          </mxGeometry>
        </mxCell>
        <mxCell id="pQ48hnmP3BsQIGEezLn9-9" value="Handoff" style="edgeLabel;html=1;align=center;verticalAlign=middle;resizable=0;points=[];" parent="pQ48hnmP3BsQIGEezLn9-6" vertex="1" connectable="0">
          <mxGeometry x="-0.0649" y="1" relative="1" as="geometry">
            <mxPoint y="1" as="offset" />
          </mxGeometry>
        </mxCell>
        <mxCell id="pQ48hnmP3BsQIGEezLn9-8" value="" style="endArrow=classic;startArrow=classic;html=1;rounded=0;exitX=1;exitY=0.5;exitDx=0;exitDy=0;entryX=0;entryY=0.5;entryDx=0;entryDy=0;" parent="1" source="pQ48hnmP3BsQIGEezLn9-2" target="pQ48hnmP3BsQIGEezLn9-3" edge="1">
          <mxGeometry width="50" height="50" relative="1" as="geometry">
            <mxPoint x="706" y="376" as="sourcePoint" />
            <mxPoint x="756" y="326" as="targetPoint" />
          </mxGeometry>
        </mxCell>
        <mxCell id="pQ48hnmP3BsQIGEezLn9-15" value="Handoff" style="edgeLabel;html=1;align=center;verticalAlign=middle;resizable=0;points=[];" parent="pQ48hnmP3BsQIGEezLn9-8" vertex="1" connectable="0">
          <mxGeometry x="-0.1069" y="-1" relative="1" as="geometry">
            <mxPoint as="offset" />
          </mxGeometry>
        </mxCell>
        <mxCell id="pQ48hnmP3BsQIGEezLn9-18" value="" style="endArrow=classic;startArrow=classic;html=1;rounded=0;exitX=1;exitY=0.5;exitDx=0;exitDy=0;entryX=0;entryY=0.5;entryDx=0;entryDy=0;" parent="1" source="pQ48hnmP3BsQIGEezLn9-5" target="pQ48hnmP3BsQIGEezLn9-3" edge="1">
          <mxGeometry width="50" height="50" relative="1" as="geometry">
            <mxPoint x="738" y="237" as="sourcePoint" />
            <mxPoint x="822" y="308" as="targetPoint" />
          </mxGeometry>
        </mxCell>
        <mxCell id="pQ48hnmP3BsQIGEezLn9-19" value="Handoff" style="edgeLabel;html=1;align=center;verticalAlign=middle;resizable=0;points=[];" parent="pQ48hnmP3BsQIGEezLn9-18" vertex="1" connectable="0">
          <mxGeometry x="-0.1069" y="-1" relative="1" as="geometry">
            <mxPoint as="offset" />
          </mxGeometry>
        </mxCell>
        <mxCell id="pQ48hnmP3BsQIGEezLn9-24" value="refund_flight" style="shape=cylinder3;whiteSpace=wrap;html=1;boundedLbl=1;backgroundOutline=1;size=6.500000000000057;fillColor=#fff2cc;strokeColor=#d6b656;" parent="1" vertex="1">
          <mxGeometry x="616.5" y="418" width="103" height="45" as="geometry" />
        </mxCell>
        <mxCell id="pQ48hnmP3BsQIGEezLn9-25" value="" style="endArrow=classic;html=1;rounded=0;entryX=0.5;entryY=0;entryDx=0;entryDy=0;entryPerimeter=0;" parent="1" target="pQ48hnmP3BsQIGEezLn9-24" edge="1">
          <mxGeometry width="50" height="50" relative="1" as="geometry">
            <mxPoint x="666" y="390" as="sourcePoint" />
            <mxPoint x="716" y="340" as="targetPoint" />
          </mxGeometry>
        </mxCell>
      </root>
    </mxGraphModel>
  </diagram>
</mxfile>
